<svg fill="#C29545" height="64" viewBox="0 0 496 496" width="64" xmlns="http://www.w3.org/2000/svg"><path d="m280 272c-4.40625 0-8-3.59375-8-8h-16c0 10.414062 6.710938 19.214844 16 22.527344v17.472656h16v-17.472656c9.289062-3.3125 16-12.113282 16-22.527344 0-13.230469-10.769531-24-24-24-4.40625 0-8-3.59375-8-8s3.59375-8 8-8 8 3.59375 8 8h16c0-10.414062-6.710938-19.214844-16-22.527344v-17.472656h-16v17.472656c-9.289062 3.3125-16 12.113282-16 22.527344 0 13.230469 10.769531 24 24 24 4.40625 0 8 3.59375 8 8s-3.59375 8-8 8zm0 0"/><path d="m280 336c48.519531 0 88-39.480469 88-88s-39.480469-88-88-88-88 39.480469-88 88 39.480469 88 88 88zm0-160c39.695312 0 72 32.304688 72 72s-32.304688 72-72 72-72-32.304688-72-72 32.304688-72 72-72zm0 0"/><path d="m496 128h-96v-128h-315.3125l-84.6875 84.6875v411.3125h400v-128h96zm-416-100.6875v52.6875h-52.6875zm304 452.6875h-368v-384h80v-80h288v112h-320v240h320zm96-128h-400v-208h400zm0 0"/><path d="m112 176h40v-16h-56v56h16zm0 0"/><path d="m152 320h-40v-40h-16v56h56zm0 0"/><path d="m448 216h16v-56h-56v16h40zm0 0"/><path d="m464 280h-16v40h-40v16h56zm0 0"/><path d="m112 32h256v16h-256zm0 0"/><path d="m112 64h16v16h-16zm0 0"/><path d="m144 64h224v16h-224zm0 0"/><path d="m112 96h224v16h-224zm0 0"/><path d="m352 96h16v16h-16zm0 0"/><path d="m32 384h336v16h-336zm0 0"/><path d="m32 416h208v16h-208zm0 0"/><path d="m256 416h112v16h-112zm0 0"/><path d="m32 448h304v16h-304zm0 0"/><path d="m352 448h16v16h-16zm0 0"/></svg>